{"title":"Death.Race.3.Inferno.UNRATED.2013.720p.x264.Feel-Free","uid":8000851,"size":2676184856,"categoryP":"video","categoryS":"hd___movies","magnet":"?xt=urn:btih:8ed1a9aebd5a9e58ab16966c9f408b0a0a5d93d5&amp;dn=Death.Race.3.Inferno.UNRATED.2013.720p.x264.Feel-Free&amp;tr=udp%3A%2F%2Ftracker.openbittorrent.com%3A80&amp;tr=udp%3A%2F%2Fopen.demonii.com%3A1337&amp;tr=udp%3A%2F%2Ftracker.coppersurfer.tk%3A6969&amp;tr=udp%3A%2F%2Fexodus.desync.com%3A6969","seeders":1,"leechers":0,"uploader":"SaM","files":8,"time":1357753830,"description":"Genre: Action | Crime | Thriller\nLanguage:English\nIMDb:http://www.imdb.com/title/tt1988591/\nSource:UNRATED 2013 720p WEB-DL H264-WEBiOS Thanks\nEncoder:Tony\n\n\nFormat : MPEG-4\nFormat profile : Base Media\nCodec ID : isom\nFile size : 2.49 GiB\nDuration : 1h 45mn\nOverall bit rate mode : Variable\nOverall bit rate : 3 387 Kbps\n\nVideo\nID : 1\nFormat : AVC\nFormat/Info : Advanced Video Codec\nFormat profile : &lt;a class=&quot;__cf_email__&quot; href=&quot;/cdn-cgi/l/email-protection&quot; data-cfemail=&quot;256d4c424d6569100b14&quot;&gt;[email&amp;#160;protected]&lt;/a&gt;&lt;script cf-hash='f9e31' type=&quot;text/javascript&quot;&gt;\n/* &lt;![CDATA[ */!function(){try{var t=&quot;currentScript&quot;in document?document.currentScript:function(){for(var t=document.getElementsByTagName(&quot;script&quot;),e=t.length;e--;)if(t[e].getAttribute(&quot;cf-hash&quot;))return t[e]}();if(t&amp;&amp;t.previousSibling){var e,r,n,i,c=t.previousSibling,a=c.getAttribute(&quot;data-cfemail&quot;);if(a){for(e=&quot;&quot;,r=parseInt(a.substr(0,2),16),n=2;a.length-n;n+=2)i=parseInt(a.substr(n,2),16)^r,e+=String.fromCharCode(i);e=document.createTextNode(e),c.parentNode.replaceChild(e,c)}}}catch(u){}}();/* ]]&gt; */&lt;/script&gt;\nFormat settings, CABAC : Yes\nFormat settings, ReFrames : 3 frames\nCodec ID : avc1\nCodec ID/Info : Advanced Video Coding\nDuration : 1h 45mn\nBit rate : 3 000 Kbps\nMaximum bit rate : 22.2 Mbps\nWidth : 1 280 pixels\nHeight : 720 pixels\nDisplay aspect ratio : 16:9\nFrame rate mode : Constant\nFrame rate : 23.976 fps\nColor space : YUV\nChroma subsampling : 4:2:0\nBit depth : 8 bits\nScan type : Progressive\nBits/(Pixel*Frame) : 0.136\nStream size : 2.16 GiB (87%)\nWriting library : x264\n\n\nAudio\nID : 2\nFormat : AAC\nFormat/Info : Advanced Audio Codec\nFormat profile : LC\nCodec ID : 40\nDuration : 1h 45mn\nBit rate mode : Variable\nBit rate : 445 Kbps\nMaximum bit rate : 515 Kbps\nChannel(s) : 6 channels\nChannel positions : Front: L C R, Side: L R, LFE\nSampling rate : 48.0 KHz\nCompression mode : Lossy\nStream size : 335 MiB (13%)\n &lt;a href=&quot;\nhttp://img96.imageshack.us/img96/1584/vlcsnap2012112318h25m21.png&quot; rel=&quot;nofollow&quot; target=&quot;_NEW&quot;&gt;\nhttp://img96.imageshack.us/img96/1584/vlcsnap2012112318h25m21.png&lt;/a&gt;\n &lt;a href=&quot;\nhttp://img706.imageshack.us/img706/1458/vlcsnap2012112318h25m35.png&quot; rel=&quot;nofollow&quot; target=&quot;_NEW&quot;&gt;\nhttp://img706.imageshack.us/img706/1458/vlcsnap2012112318h25m35.png&lt;/a&gt;\n &lt;a href=&quot;\nhttp://img33.imageshack.us/img33/4633/vlcsnap2012112318h25m49.png&quot; rel=&quot;nofollow&quot; target=&quot;_NEW&quot;&gt;\nhttp://img33.imageshack.us/img33/4633/vlcsnap2012112318h25m49.png&lt;/a&gt;\n &lt;a href=&quot;\nhttp://img22.imageshack.us/img22/8438/vlcsnap2012112318h26m11.png&quot; rel=&quot;nofollow&quot; target=&quot;_NEW&quot;&gt;\nhttp://img22.imageshack.us/img22/8438/vlcsnap2012112318h26m11.png&lt;/a&gt;\n\nGreets:\nCRYS,INSPiRAL,IMAGINE,LKRG,ADTRG,FXG,3Li,FLAWL3SS,CrEwSaDe,TA,iLLUSiON,EMBER,HOPE,GooN,BBnRG,NOGRP,ETRG,BHRG,iLLUMiNATi,MiSTERE.ViSiON,DTRG SAFCuk009,LU,TheFalcon007,MYSTiC,PrisM,Noir,WBZ,LAP,Rx,Kingdom,SAFCuk009+Fabreezy,HDLiTE,TWiZTED,ETRG.ELEKTRI4KA,MAGNAT,CM8\nAnd to all the other p2p grps past and present\n\n\nMake sure its a real Feel-Free release @ http://extratorrent\nThanks to all who promotes release Feel-Free !!!","torrent":{"xt":"urn:btih:8ed1a9aebd5a9e58ab16966c9f408b0a0a5d93d5","amp;dn":"Death.Race.3.Inferno.UNRATED.2013.720p.x264.Feel-Free","amp;tr":["udp%3A%2F%2Ftracker.openbittorrent.com%3A80","udp%3A%2F%2Fopen.demonii.com%3A1337","udp%3A%2F%2Ftracker.coppersurfer.tk%3A6969","udp%3A%2F%2Fexodus.desync.com%3A6969"],"infoHash":"8ed1a9aebd5a9e58ab16966c9f408b0a0a5d93d5","infoHashBuffer":{"type":"Buffer","data":[142,209,169,174,189,90,158,88,171,22,150,108,159,64,139,10,10,93,147,213]},"announce":[],"urlList":[]}}